<svg width="227" height="49" viewBox="0 0 227 49" fill="none" xmlns="http://www.w3.org/2000/svg">
<g clip-path="url(#clip0_76_110)">
<g filter="url(#filter0_d_76_110)">
<path d="M63.1675 24.5919C61.8832 24.5919 60.6401 24.3948 59.4382 24.0006C58.2527 23.59 57.2236 22.9248 56.351 22.0051C55.4783 21.0853 54.9432 19.8946 54.7456 18.4329V18.3343C54.7456 18.0879 54.8856 17.9647 55.1655 17.9647H58.4256C58.689 17.9647 58.8537 18.0879 58.9195 18.3343C59.5287 20.2559 60.9447 21.2167 63.1675 21.2167C64.0896 21.2167 64.8469 21.0196 65.4397 20.6254C66.0489 20.2312 66.3535 19.6482 66.3535 18.8762C66.3535 18.3342 66.1641 17.899 65.7854 17.5705C65.4067 17.242 64.9293 16.9875 64.353 16.8068C63.7932 16.6262 63.0111 16.4291 62.0067 16.2155C60.5907 15.9035 59.4299 15.5832 58.5243 15.2547C57.6188 14.9098 56.8449 14.376 56.2028 13.6534C55.5606 12.9143 55.2396 11.9207 55.2396 10.6724C55.2396 9.45705 55.5359 8.43054 56.1287 7.59291C56.7214 6.73886 57.5364 6.09834 58.5737 5.67131C59.611 5.24429 60.7801 5.03076 62.0808 5.03076C63.3157 5.03076 64.4682 5.24429 65.5385 5.67131C66.6252 6.0819 67.539 6.71421 68.2799 7.56826C69.0373 8.40589 69.5395 9.4324 69.7865 10.6478L69.8111 10.7709C69.8111 10.8859 69.7699 10.9762 69.6875 11.0419C69.6217 11.0911 69.5229 11.1157 69.3912 11.1157H66.1805C65.917 11.1157 65.7524 11.0008 65.6865 10.7709C65.4066 9.99893 64.9374 9.41585 64.2788 9.02168C63.6366 8.61107 62.871 8.40578 61.9819 8.40578C61.1751 8.40578 60.5083 8.57001 59.9814 8.8985C59.471 9.22698 59.2158 9.70328 59.2158 10.3274C59.2158 10.8201 59.3886 11.2143 59.7344 11.5099C60.0966 11.8055 60.5412 12.0437 61.0681 12.2244C61.6114 12.3885 62.3771 12.5857 63.365 12.8156C64.8139 13.1277 66.0076 13.4644 66.9461 13.8257C67.8846 14.1706 68.6914 14.7372 69.3665 15.5256C70.0416 16.2975 70.3791 17.3487 70.3791 18.679C70.3791 19.878 70.091 20.9209 69.5147 21.8078C68.9384 22.6947 68.1069 23.3845 67.0202 23.8772C65.95 24.3535 64.6658 24.5919 63.1675 24.5919ZM77.3131 24.4933C75.1232 24.4933 73.6496 23.7049 72.8922 22.1282C72.6782 21.6683 72.53 21.1674 72.4476 20.6254C72.3818 20.0834 72.3489 19.2704 72.3489 18.1864V10.7463C72.3489 10.4507 72.497 10.3029 72.7934 10.3029H75.6336C75.93 10.3029 76.0782 10.4507 76.0782 10.7463V18.2357C76.0782 18.9255 76.1276 19.4839 76.2264 19.9109C76.3252 20.3216 76.4898 20.65 76.7203 20.8964C77.0661 21.2741 77.6094 21.463 78.3504 21.463C79.2395 21.463 79.8981 21.2002 80.3262 20.6747C80.5732 20.3954 80.746 20.0259 80.8448 19.5661C80.9436 19.1062 80.993 18.4985 80.993 17.743V10.7463C80.993 10.4507 81.1412 10.3029 81.4376 10.3029H84.3025C84.5989 10.3029 84.747 10.4507 84.747 10.7463V23.7542C84.747 24.0498 84.5989 24.1976 84.3025 24.1976H81.4376C81.1412 24.1976 80.993 24.0498 80.993 23.7542V23.3847C80.993 23.1219 80.9272 22.9905 80.7954 22.9905C80.7131 22.9905 80.6225 23.0561 80.5237 23.1874C80.0957 23.6309 79.6264 23.9594 79.116 24.1729C78.6056 24.3864 78.0046 24.4933 77.3131 24.4933ZM87.7787 24.1976C87.4823 24.1976 87.3341 24.0498 87.3341 23.7542V10.7463C87.3341 10.4507 87.4823 10.3029 87.7787 10.3029H90.6436C90.94 10.3029 91.0882 10.4507 91.0882 10.7463V11.1405C91.0882 11.3704 91.154 11.4854 91.2858 11.4854C91.3516 11.4854 91.4504 11.4197 91.5821 11.2882C92.0267 10.8283 92.5042 10.4998 93.0146 10.3028C93.525 10.1057 94.1013 10.0071 94.7434 10.0071C96.9991 10.0071 98.4727 10.7955 99.1643 12.3722C99.4277 12.9142 99.5841 13.4644 99.6335 14.0228C99.6994 14.5812 99.7323 15.3449 99.7323 16.314V23.7541C99.7323 24.0497 99.5841 24.1975 99.2878 24.1975H96.4475C96.1512 24.1975 96.003 24.0497 96.003 23.7541V16.2647C96.003 15.5749 95.9536 15.0247 95.8548 14.6141C95.756 14.187 95.5914 13.8504 95.3608 13.604C94.9986 13.2263 94.4553 13.0374 93.7308 13.0374C92.8088 13.0374 92.1419 13.3002 91.7303 13.8257C91.4998 14.1049 91.3351 14.4745 91.2363 14.9343C91.1376 15.3942 91.0882 16.0019 91.0882 16.7574V23.7541C91.0882 24.0497 90.94 24.1975 90.6436 24.1975L87.7787 24.1976ZM107.802 24.4933C106.617 24.4933 105.563 24.1894 104.641 23.5817C103.719 22.9576 102.994 22.1036 102.468 21.0196C101.957 19.9192 101.702 18.6627 101.702 17.2502C101.702 15.8378 101.957 14.5896 102.468 13.5056C102.994 12.4052 103.719 11.5511 104.641 10.9434C105.563 10.3193 106.617 10.0073 107.802 10.0073C108.494 10.0073 109.095 10.1058 109.605 10.3029C110.132 10.5 110.618 10.8285 111.062 11.2883C111.194 11.4198 111.293 11.4855 111.359 11.4855C111.49 11.4855 111.556 11.3706 111.556 11.1407V5.84387C111.556 5.54824 111.705 5.40044 112.001 5.40044H114.866C115.162 5.40044 115.31 5.54824 115.31 5.84387V23.7543C115.31 24.0499 115.162 24.1978 114.866 24.1978H112.001C111.705 24.1978 111.556 24.0499 111.556 23.7543V23.2616C111.556 23.0809 111.499 22.9906 111.383 22.9906C111.301 22.9906 111.194 23.0563 111.062 23.1876C110.618 23.6639 110.132 24.0006 109.605 24.1977C109.095 24.3948 108.494 24.4933 107.802 24.4933ZM108.765 21.2906C109.753 21.2906 110.552 20.921 111.161 20.1819C111.787 19.4264 112.1 18.4492 112.1 17.2502C112.1 16.0513 111.787 15.0823 111.161 14.3432C110.552 13.5877 109.753 13.21 108.765 13.21C107.778 13.21 106.979 13.5877 106.37 14.3432C105.777 15.0823 105.481 16.0513 105.481 17.2502C105.481 18.4492 105.777 19.4264 106.37 20.1819C106.979 20.921 107.778 21.2906 108.765 21.2906ZM121.923 24.4933C120.589 24.4933 119.495 24.1319 118.638 23.4093C117.782 22.6702 117.354 21.6437 117.354 20.3298C117.354 18.9173 117.914 17.8333 119.034 17.0778C119.758 16.5851 120.845 16.2073 122.294 15.9445L125.751 15.304C126.031 15.2548 126.163 15.0823 126.146 14.7866C126.048 14.2282 125.85 13.7848 125.554 13.4563C125.191 13.0621 124.648 12.865 123.924 12.865C123.43 12.865 122.977 13.0129 122.565 13.3085C122.154 13.5877 121.857 13.9737 121.676 14.4664C121.61 14.7127 121.446 14.8359 121.182 14.8359H118.367C118.021 14.8359 117.889 14.6717 117.972 14.3432C118.284 12.9143 119.001 11.8385 120.12 11.1159C121.24 10.3768 122.516 10.0073 123.948 10.0073C124.788 10.0073 125.578 10.1222 126.319 10.3522C127.06 10.5821 127.694 10.927 128.221 11.3869C128.748 11.8467 129.127 12.3805 129.357 12.9882C129.604 13.5959 129.752 14.22 129.802 14.8605C129.868 15.4847 129.9 16.2977 129.9 17.2995V23.7542C129.9 24.0498 129.752 24.1976 129.456 24.1976H126.591C126.295 24.1976 126.146 24.0498 126.146 23.7542V23.2861C126.146 23.0233 126.097 22.8919 125.998 22.8919C125.949 22.8919 125.875 22.9494 125.776 23.0644C125.496 23.3764 125.249 23.5981 125.035 23.7295C124.278 24.2387 123.24 24.4933 121.923 24.4933ZM122.936 21.6108C123.512 21.6108 124.055 21.4877 124.566 21.2413C125.126 20.9785 125.529 20.6254 125.776 20.1819C126.023 19.7385 126.171 19.1555 126.221 18.4328V18.3835C126.221 18.2357 126.171 18.1289 126.072 18.0632C125.99 17.9974 125.875 17.981 125.727 18.0139L123.306 18.482C122.829 18.5806 122.45 18.6873 122.17 18.8022C121.907 18.9172 121.684 19.0568 121.503 19.2211C121.223 19.5003 121.083 19.8288 121.083 20.2065C121.083 20.6664 121.256 21.0195 121.602 21.2658C121.948 21.4958 122.392 21.6108 122.936 21.6108ZM133.056 29.1002C132.924 29.1002 132.817 29.0592 132.735 28.9771C132.652 28.895 132.611 28.7882 132.611 28.6568V26.4642C132.611 26.1686 132.759 26.0208 133.056 26.0208H134.216C134.612 26.0208 134.924 25.9714 135.155 25.8728C135.402 25.7742 135.608 25.5689 135.772 25.2569L136.019 24.6656C136.085 24.5507 136.118 24.4275 136.118 24.2961C136.118 24.2469 136.102 24.1566 136.069 24.0251L131.327 10.8202L131.277 10.6232C131.277 10.4097 131.409 10.3029 131.672 10.3029H134.76C135.04 10.3029 135.212 10.4261 135.278 10.6725L137.798 19.2705C137.847 19.484 137.937 19.5907 138.069 19.5907C138.201 19.5907 138.291 19.484 138.341 19.2705L140.588 10.6971C140.671 10.4343 140.835 10.3029 141.082 10.3029H144.194C144.342 10.3029 144.449 10.3522 144.515 10.4508C144.581 10.5329 144.589 10.6561 144.54 10.8204L139.526 25.4542C139.082 26.7846 138.522 27.7208 137.847 28.2628C137.188 28.8212 136.25 29.1004 135.031 29.1004L133.056 29.1002Z" fill="#ECE9DA"/>
</g>
<g filter="url(#filter1_d_76_110)">
<path d="M152.999 24.1977C152.702 24.1977 152.554 24.0499 152.554 23.7543V5.84383C152.554 5.5482 152.702 5.40039 152.999 5.40039H161.075C162.919 5.40039 164.368 5.86026 165.422 6.78C166.492 7.68333 167.027 9.09581 167.027 11.0174C167.027 12.1178 166.805 13.0869 166.36 13.9245C165.932 14.7457 165.331 15.3944 164.557 15.8707C164.393 15.9693 164.31 16.0925 164.31 16.2403C164.31 16.2895 164.327 16.3634 164.36 16.462L167.323 23.6804L167.373 23.8774C167.373 24.0909 167.241 24.1976 166.978 24.1976H163.668C163.421 24.1976 163.248 24.0827 163.15 23.8527L160.556 17.1764C160.474 16.93 160.309 16.8068 160.062 16.8068H156.975C156.843 16.8068 156.736 16.8479 156.654 16.93C156.572 17.0121 156.531 17.1188 156.531 17.2502V23.7542C156.531 24.0498 156.382 24.1976 156.086 24.1976L152.999 24.1977ZM160.507 13.3578C161.347 13.3578 161.98 13.169 162.409 12.7912C162.853 12.4135 163.075 11.8632 163.075 11.1406C163.075 10.4344 162.853 9.90059 162.409 9.53925C161.98 9.1615 161.347 8.97261 160.507 8.97261H156.975C156.679 8.97261 156.531 9.12044 156.531 9.41609V12.9144C156.531 13.21 156.679 13.3578 156.975 13.3578H160.507ZM175.64 24.4934C174.224 24.4934 172.965 24.1895 171.862 23.5818C170.775 22.9577 169.935 22.1037 169.342 21.0197C168.75 19.9357 168.453 18.7121 168.453 17.3489C168.453 16.1007 168.708 14.9181 169.219 13.8013C169.746 12.668 170.536 11.7565 171.59 11.0667C172.66 10.3605 173.969 10.0073 175.517 10.0073C176.785 10.0073 177.954 10.2701 179.024 10.7957C180.111 11.3049 180.983 12.1096 181.642 13.21C182.3 14.294 182.63 15.6572 182.63 17.2996V17.5953C182.63 17.8909 182.482 18.0387 182.185 18.0387H172.825C172.677 18.0387 172.57 18.0798 172.504 18.1618C172.438 18.2439 172.421 18.3589 172.454 18.5068C172.553 18.9666 172.726 19.3772 172.973 19.7385C173.599 20.7568 174.545 21.266 175.813 21.266C176.422 21.266 176.949 21.1346 177.394 20.8718C177.855 20.5926 178.209 20.223 178.456 19.7632C178.538 19.6646 178.612 19.5907 178.678 19.5414C178.76 19.4922 178.859 19.4676 178.974 19.4676H181.864C182.029 19.4676 182.144 19.5005 182.21 19.5662C182.292 19.632 182.317 19.7223 182.284 19.8372C181.806 21.2333 181.008 22.3583 179.888 23.2124C178.785 24.0664 177.369 24.4934 175.64 24.4934ZM178.308 15.3041C178.456 15.3041 178.571 15.2631 178.653 15.181C178.736 15.0824 178.744 14.9592 178.678 14.8114C178.563 14.5322 178.415 14.2776 178.233 14.0477C177.641 13.2922 176.785 12.9144 175.665 12.9144C174.545 12.9144 173.681 13.2922 173.072 14.0477C172.858 14.2776 172.709 14.5404 172.627 14.836C172.594 14.9018 172.578 14.9593 172.578 15.0085C172.578 15.0906 172.619 15.1645 172.701 15.2302C172.783 15.2794 172.882 15.304 172.998 15.304L178.308 15.3041ZM188.674 24.4934C187.341 24.4934 186.246 24.132 185.39 23.4094C184.533 22.6703 184.105 21.6438 184.105 20.3299C184.105 18.9174 184.665 17.8334 185.785 17.0779C186.509 16.5852 187.596 16.2074 189.045 15.9446L192.503 15.3041C192.782 15.2549 192.914 15.0824 192.898 14.7867C192.799 14.2283 192.601 13.7848 192.305 13.4564C191.943 13.0622 191.399 12.8651 190.675 12.8651C190.181 12.8651 189.728 13.0129 189.317 13.3086C188.905 13.5878 188.609 13.9737 188.427 14.4665C188.362 14.7128 188.197 14.836 187.934 14.836H185.118C184.772 14.836 184.64 14.6718 184.723 14.3433C185.036 12.9144 185.752 11.8386 186.872 11.116C187.991 10.3769 189.267 10.0073 190.7 10.0073C191.539 10.0073 192.33 10.1223 193.071 10.3522C193.812 10.5822 194.445 10.9271 194.972 11.387C195.499 11.8468 195.878 12.3806 196.108 12.9883C196.355 13.596 196.504 14.2201 196.553 14.8606C196.619 15.4847 196.652 16.2978 196.652 17.2996V23.7543C196.652 24.0499 196.504 24.1977 196.207 24.1977H193.342C193.046 24.1977 192.898 24.0499 192.898 23.7543V23.2862C192.898 23.0234 192.848 22.892 192.75 22.892C192.7 22.892 192.626 22.9495 192.527 23.0645C192.247 23.3765 192 23.5982 191.786 23.7296C191.029 24.2387 189.992 24.4934 188.674 24.4934ZM189.687 21.6109C190.263 21.6109 190.807 21.4878 191.317 21.2414C191.877 20.9786 192.28 20.6255 192.527 20.182C192.774 19.7386 192.922 19.1555 192.972 18.4329V18.3836C192.972 18.2357 192.922 18.129 192.824 18.0633C192.741 17.9975 192.626 17.9811 192.478 18.014L190.058 18.4821C189.58 18.5807 189.201 18.6874 188.921 18.8023C188.658 18.9173 188.436 19.0569 188.255 19.2211C187.975 19.5004 187.835 19.8288 187.835 20.2066C187.835 20.6665 188.008 21.0196 188.353 21.2659C188.699 21.4959 189.144 21.6109 189.687 21.6109ZM204.672 24.4934C203.487 24.4934 202.433 24.1895 201.511 23.5818C200.589 22.9577 199.865 22.1037 199.338 21.0197C198.827 19.9193 198.572 18.6628 198.572 17.2503C198.572 15.8379 198.827 14.5897 199.338 13.5057C199.865 12.4053 200.589 11.5512 201.511 10.9435C202.433 10.3194 203.487 10.0073 204.672 10.0073C205.364 10.0073 205.965 10.1059 206.475 10.303C207.002 10.5001 207.488 10.8285 207.932 11.2884C208.064 11.4199 208.163 11.4856 208.229 11.4856C208.361 11.4856 208.426 11.3707 208.426 11.1407V5.84396C208.426 5.54833 208.575 5.40052 208.871 5.40052H211.736C212.032 5.40052 212.18 5.54833 212.18 5.84396V23.7544C212.18 24.05 212.032 24.1978 211.736 24.1978H208.871C208.575 24.1978 208.426 24.05 208.426 23.7544V23.2617C208.426 23.081 208.369 22.9907 208.254 22.9907C208.171 22.9907 208.064 23.0563 207.932 23.1877C207.488 23.664 207.002 24.0007 206.475 24.1978C205.965 24.3949 205.364 24.4934 204.672 24.4934ZM205.636 21.2907C206.623 21.2907 207.422 20.9211 208.031 20.182C208.657 19.4265 208.97 18.4493 208.97 17.2503C208.97 16.0514 208.657 15.0824 208.031 14.3433C207.422 13.5878 206.623 13.21 205.636 13.21C204.648 13.21 203.849 13.5878 203.24 14.3433C202.647 15.0824 202.351 16.0514 202.351 17.2503C202.351 18.4493 202.647 19.4265 203.24 20.182C203.849 20.9211 204.648 21.2907 205.636 21.2907ZM215.484 29.1003C215.352 29.1003 215.245 29.0593 215.163 28.9772C215.08 28.8951 215.039 28.7883 215.039 28.6569V26.4643C215.039 26.1687 215.187 26.0209 215.484 26.0209H216.644C217.04 26.0209 217.352 25.9715 217.583 25.8729C217.83 25.7743 218.036 25.569 218.2 25.257L218.447 24.6657C218.513 24.5508 218.546 24.4276 218.546 24.2962C218.546 24.247 218.53 24.1567 218.497 24.0252L213.755 10.8203L213.705 10.6233C213.705 10.4098 213.837 10.303 214.101 10.303H217.188C217.468 10.303 217.641 10.4262 217.706 10.6726L220.226 19.2706C220.275 19.4841 220.366 19.5908 220.497 19.5908C220.629 19.5908 220.72 19.4841 220.769 19.2706L223.016 10.6972C223.099 10.4344 223.263 10.303 223.51 10.303H226.622C226.77 10.303 226.878 10.3523 226.943 10.4509C227.009 10.533 227.017 10.6562 226.968 10.8205L221.954 25.4543C221.51 26.7847 220.95 27.7208 220.275 28.2628C219.616 28.8213 218.678 29.1005 217.459 29.1005L215.484 29.1003Z" fill="#FBDE59"/>
</g>
<g filter="url(#filter2_d_76_110)">
<path d="M62.941 45.0525C61.6836 45.0525 60.4665 44.8595 59.2898 44.4736C58.1291 44.0716 57.1216 43.4204 56.2673 42.5199C55.4129 41.6194 54.889 40.4536 54.6956 39.0225V38.9262C54.6956 38.6849 54.8326 38.5643 55.1066 38.5643H58.2984C58.5563 38.5643 58.7175 38.6849 58.782 38.9262C59.3784 40.8075 60.7648 41.7482 62.941 41.7482C63.8437 41.7482 64.5852 41.5552 65.1655 41.1693C65.762 40.7834 66.0602 40.2126 66.0602 39.4568C66.0602 38.9262 65.8748 38.5 65.5041 38.1784C65.1333 37.8568 64.6658 37.6076 64.1016 37.4307C63.5535 37.2539 62.7878 37.0609 61.8045 36.8519C60.4182 36.5463 59.2817 36.2328 58.3951 35.9112C57.5085 35.5735 56.7509 35.0509 56.1222 34.3434C55.4935 33.6198 55.1792 32.6469 55.1792 31.4249C55.1792 30.2349 55.4693 29.2299 56.0496 28.4099C56.63 27.5737 57.4279 26.9466 58.4435 26.5285C59.459 26.1104 60.6036 25.9014 61.877 25.9014C63.086 25.9014 64.2144 26.1104 65.2622 26.5285C66.3262 26.9305 67.2208 27.5496 67.9462 28.3857C68.6878 29.2058 69.1794 30.2108 69.4212 31.4007L69.4453 31.5213C69.4453 31.634 69.405 31.7224 69.3244 31.7866C69.26 31.8349 69.1632 31.859 69.0343 31.859H65.8908C65.6329 31.859 65.4717 31.7464 65.4072 31.5213C65.1332 30.7655 64.6738 30.1947 64.029 29.8088C63.4003 29.4068 62.6507 29.2058 61.7802 29.2058C60.9903 29.2058 60.3375 29.3666 59.8216 29.6882C59.3219 30.0098 59.0721 30.4761 59.0721 31.0871C59.0721 31.5695 59.2413 31.9555 59.5798 32.2449C59.9345 32.5343 60.3697 32.7675 60.8856 32.9444C61.4175 33.1052 62.1671 33.2982 63.1343 33.5233C64.5529 33.8288 65.7216 34.1584 66.6404 34.5122C67.5593 34.8498 68.3492 35.4046 69.0101 36.1764C69.671 36.9322 70.0015 37.9613 70.0015 39.2638C70.0015 40.4377 69.7194 41.4587 69.1552 42.327C68.591 43.1954 67.7769 43.8707 66.713 44.3531C65.6652 44.8194 64.4079 45.0525 62.941 45.0525ZM79.4745 44.9562C78.0882 44.9562 76.855 44.6587 75.775 44.0637C74.7111 43.4688 73.8809 42.6326 73.2844 41.5552C72.688 40.4618 72.3898 39.2076 72.3898 37.7925C72.3898 36.4257 72.688 35.2117 73.2844 34.1504C73.8809 33.0891 74.7111 32.261 75.775 31.666C76.855 31.0711 78.0882 30.7736 79.4745 30.7736C80.8609 30.7736 82.086 31.0711 83.1499 31.666C84.2299 32.261 85.0601 33.0891 85.6404 34.1504C86.2369 35.2117 86.5351 36.4257 86.5351 37.7925C86.5351 39.2076 86.2369 40.4618 85.6404 41.5552C85.0601 42.6326 84.238 43.4688 83.1741 44.0637C82.1102 44.6587 80.877 44.9562 79.4745 44.9562ZM79.4745 41.7964C80.4579 41.7964 81.2477 41.4346 81.8442 40.711C82.4406 39.9714 82.7388 38.9985 82.7388 37.7925C82.7388 36.6509 82.4406 35.7182 81.8442 34.9946C81.2477 34.271 80.4579 33.9092 79.4745 33.9092C78.4912 33.9092 77.6933 34.271 77.0807 34.9946C76.4681 35.7021 76.1619 36.6348 76.1619 37.7925C76.1619 38.9985 76.4681 39.9714 77.0807 40.711C77.6933 41.4346 78.4912 41.7964 79.4745 41.7964ZM92.5745 44.6667C91.559 44.6667 90.7771 44.4336 90.229 43.9672C89.681 43.4849 89.4069 42.7693 89.4069 41.8205V26.6973C89.4069 26.4079 89.552 26.2632 89.8422 26.2632H92.6471C92.9372 26.2632 93.0823 26.4079 93.0823 26.6973V40.6387C93.0823 41.3301 93.3966 41.6758 94.0253 41.6758H94.5331C94.8233 41.6758 94.9683 41.8206 94.9683 42.11V44.2326C94.9683 44.522 94.8233 44.6667 94.5331 44.6667H92.5745ZM102.41 44.9562C100.266 44.9562 98.8235 44.1843 98.082 42.6406C97.8724 42.1904 97.7273 41.7 97.6467 41.1693C97.5822 40.6387 97.55 39.8427 97.55 38.7815V31.4972C97.55 31.2078 97.6951 31.0631 97.9852 31.0631H100.766C101.056 31.0631 101.201 31.2078 101.201 31.4972V38.8297C101.201 39.5051 101.25 40.0518 101.346 40.4699C101.443 40.8719 101.604 41.1935 101.83 41.4347C102.168 41.8045 102.7 41.9894 103.426 41.9894C104.296 41.9894 104.941 41.7321 105.36 41.2176C105.602 40.9442 105.771 40.5824 105.868 40.1322C105.965 39.6819 106.013 39.087 106.013 38.3473V31.4972C106.013 31.2078 106.158 31.0631 106.448 31.0631H109.253C109.543 31.0631 109.688 31.2078 109.688 31.4972V44.2326C109.688 44.522 109.543 44.6667 109.253 44.6667H106.448C106.158 44.6667 106.013 44.522 106.013 44.2326V43.8707C106.013 43.6135 105.949 43.4848 105.82 43.4848C105.739 43.4848 105.65 43.5491 105.554 43.6778C105.135 44.1119 104.675 44.4335 104.175 44.6426C103.676 44.8516 103.087 44.9562 102.41 44.9562ZM117.396 44.6667C116.381 44.6667 115.599 44.4336 115.051 43.9672C114.503 43.4849 114.229 42.7693 114.229 41.8205V34.3916C114.229 34.1022 114.084 33.9574 113.793 33.9574H112.729C112.601 33.9574 112.496 33.9172 112.415 33.8368C112.335 33.7564 112.294 33.6519 112.294 33.5233V31.4972C112.294 31.2077 112.439 31.063 112.729 31.063H113.793C114.084 31.063 114.229 30.9183 114.229 30.6289V26.6973C114.229 26.4079 114.374 26.2632 114.664 26.2632H117.469C117.759 26.2632 117.904 26.4079 117.904 26.6973V30.6289C117.904 30.9183 118.049 31.0631 118.339 31.0631H119.959C120.249 31.0631 120.395 31.2078 120.395 31.4972V33.5233C120.395 33.8127 120.249 33.9575 119.959 33.9575H118.339C118.049 33.9575 117.904 34.1022 117.904 34.3916V40.6387C117.904 40.9603 117.968 41.2176 118.097 41.4105C118.226 41.5874 118.484 41.6758 118.871 41.6758H119.935C120.225 41.6758 120.37 41.8206 120.37 42.11V44.2325C120.37 44.522 120.225 44.6667 119.935 44.6667L117.396 44.6667ZM123.726 44.6667C123.436 44.6667 123.291 44.522 123.291 44.2326V31.4972C123.291 31.2078 123.436 31.0631 123.726 31.0631H126.531C126.821 31.0631 126.966 31.2078 126.966 31.4972V44.2326C126.966 44.522 126.821 44.6667 126.531 44.6667H123.726ZM125.128 29.8571C124.516 29.8571 124 29.6802 123.581 29.3264C123.178 28.9566 122.976 28.4742 122.976 27.8792C122.976 27.3003 123.186 26.826 123.605 26.4561C124.024 26.0863 124.532 25.9014 125.128 25.9014C125.725 25.9014 126.232 26.0863 126.652 26.4561C127.071 26.826 127.28 27.3003 127.28 27.8792C127.28 28.4742 127.071 28.9566 126.652 29.3264C126.249 29.6802 125.741 29.8571 125.128 29.8571ZM136.971 44.9562C135.585 44.9562 134.351 44.6587 133.271 44.0637C132.207 43.4688 131.377 42.6326 130.781 41.5552C130.184 40.4618 129.886 39.2076 129.886 37.7925C129.886 36.4257 130.184 35.2117 130.781 34.1504C131.377 33.0891 132.207 32.261 133.271 31.666C134.351 31.0711 135.585 30.7736 136.971 30.7736C138.357 30.7736 139.582 31.0711 140.646 31.666C141.726 32.261 142.556 33.0891 143.137 34.1504C143.733 35.2117 144.031 36.4257 144.031 37.7925C144.031 39.2076 143.733 40.4618 143.137 41.5552C142.556 42.6326 141.734 43.4688 140.67 44.0637C139.606 44.6587 138.373 44.9562 136.971 44.9562ZM136.971 41.7964C137.954 41.7964 138.744 41.4346 139.34 40.711C139.937 39.9714 140.235 38.9985 140.235 37.7925C140.235 36.6509 139.937 35.7182 139.34 34.9946C138.744 34.271 137.954 33.9092 136.971 33.9092C135.988 33.9092 135.19 34.271 134.577 34.9946C133.964 35.7021 133.658 36.6348 133.658 37.7925C133.658 38.9985 133.964 39.9714 134.577 40.711C135.19 41.4346 135.988 41.7964 136.971 41.7964ZM147.411 44.6667C147.121 44.6667 146.976 44.522 146.976 44.2326V31.4972C146.976 31.2078 147.121 31.0631 147.411 31.0631H150.216C150.506 31.0631 150.651 31.2078 150.651 31.4972V31.8832C150.651 32.1083 150.716 32.2208 150.845 32.2208C150.909 32.2208 151.006 32.1565 151.135 32.0278C151.57 31.5776 152.037 31.256 152.537 31.0631C153.037 30.8701 153.601 30.7736 154.23 30.7736C156.438 30.7736 157.881 31.5454 158.558 33.0891C158.816 33.6197 158.969 34.1584 159.017 34.7052C159.082 35.2519 159.114 35.9996 159.114 36.9483V44.2325C159.114 44.522 158.969 44.6667 158.679 44.6667H155.898C155.608 44.6667 155.463 44.522 155.463 44.2325V36.9C155.463 36.2247 155.415 35.686 155.318 35.284C155.221 34.8659 155.06 34.5363 154.834 34.2951C154.48 33.9253 153.948 33.7403 153.238 33.7403C152.336 33.7403 151.683 33.9976 151.28 34.5122C151.054 34.7855 150.893 35.1473 150.796 35.5976C150.699 36.0478 150.651 36.6428 150.651 37.3825V44.2325C150.651 44.522 150.506 44.6667 150.216 44.6667L147.411 44.6667ZM168.515 44.9562C166.919 44.9562 165.5 44.5944 164.259 43.8708C163.034 43.1311 162.26 42.0055 161.938 40.494V40.3977C161.938 40.1564 162.075 40.0358 162.349 40.0358H165.081C165.307 40.0358 165.468 40.1484 165.565 40.3735C165.823 40.9524 166.201 41.3946 166.701 41.7001C167.217 41.9895 167.805 42.1342 168.466 42.1342C169.095 42.1342 169.611 42.0137 170.014 41.7725C170.433 41.5152 170.642 41.1694 170.642 40.7353C170.642 40.2529 170.401 39.9072 169.917 39.6981C169.433 39.4891 168.668 39.272 167.62 39.0469C166.556 38.8378 165.669 38.6127 164.96 38.3715C164.267 38.1303 163.671 37.7283 163.171 37.1655C162.671 36.6027 162.421 35.8389 162.421 34.8741C162.421 33.5073 162.929 32.4862 163.945 31.8109C164.976 31.1194 166.258 30.7737 167.789 30.7737C169.353 30.7737 170.667 31.1436 171.731 31.8832C172.794 32.6229 173.496 33.6681 173.834 35.0188V35.1154C173.834 35.3566 173.697 35.4772 173.423 35.4772H170.836C170.594 35.4772 170.425 35.3647 170.328 35.1395C170.102 34.6089 169.764 34.215 169.313 33.9577C168.877 33.7004 168.37 33.5718 167.789 33.5718C167.209 33.5718 166.749 33.6843 166.411 33.9094C166.072 34.1185 165.903 34.4079 165.903 34.7777C165.903 35.228 166.145 35.5576 166.629 35.7667C167.112 35.9757 167.87 36.1687 168.901 36.3455C169.998 36.5385 170.9 36.7556 171.61 36.9968C172.335 37.238 172.956 37.64 173.472 38.2028C173.987 38.7495 174.245 39.5133 174.245 40.4942C174.245 41.3786 174.012 42.1585 173.544 42.8338C173.093 43.5092 172.432 44.0318 171.561 44.4016C170.707 44.7715 169.691 44.9562 168.515 44.9562Z" fill="#ECE9DA"/>
</g>
<g filter="url(#filter3_d_76_110)">
<path d="M22.8169 0H20.8521V49H22.8169V0Z" fill="#ECE9DA"/>
</g>
<g filter="url(#filter4_d_76_110)">
<path d="M25.2017 4.09961V11.9555H29.1906C31.0374 11.9555 32.4313 12.3711 33.3728 13.2018C34.3505 13.9965 34.8394 15.1703 34.8394 16.7234C34.8394 18.3127 34.3505 19.5227 33.3728 20.3535C32.4313 21.1842 31.0374 21.5999 29.1906 21.5999H25.2017V29.1847H28.2129C28.7561 29.1847 29.1184 29.4556 29.2994 29.9974L35.0024 44.6803C35.2196 45.186 35.5999 45.439 36.143 45.439H43.4213C44.0007 45.439 44.2903 45.2039 44.2903 44.7343L44.182 44.3012L37.6638 28.4264C37.5914 28.2097 37.5555 28.0471 37.5555 27.9388C37.5555 27.6137 37.7364 27.3428 38.0985 27.126C39.8004 26.0786 41.1221 24.6517 42.0636 22.8457C43.0412 21.0036 43.5301 18.8724 43.5301 16.4523C43.5301 12.2263 42.353 9.12014 39.9993 7.13353C37.6818 5.11081 34.4957 4.09961 30.4401 4.09961H25.2017Z" fill="#FBDE59"/>
</g>
<g filter="url(#filter5_d_76_110)">
<path d="M25.2014 4.09961V11.9555H29.1904C31.0371 11.9555 32.4311 12.3711 33.3726 13.2018C34.3502 13.9965 34.8392 15.1703 34.8392 16.7234C34.8392 18.3127 34.3502 19.5227 33.3726 20.3535C32.4311 21.1842 31.0371 21.5999 29.1904 21.5999H25.2014V29.1847H28.2127C28.7558 29.1847 29.1181 29.4556 29.2992 29.9974L35.0021 44.6803C35.2194 45.186 35.5996 45.4391 36.1428 45.4391H43.4211C44.0005 45.4391 44.29 45.2039 44.29 44.7343L44.1817 44.3012L37.6635 28.4264C37.5911 28.2097 37.5552 28.0471 37.5552 27.9388C37.5552 27.6137 37.7361 27.3428 38.0982 27.126C39.8001 26.0786 41.1218 24.6517 42.0633 22.8457C43.041 21.0036 43.5299 18.8724 43.5299 16.4523C43.5299 12.2263 42.3527 9.12012 39.9991 7.13352C37.6816 5.1108 34.4954 4.09961 30.4399 4.09961H25.2014Z" fill="#FBDE59"/>
</g>
<g filter="url(#filter6_d_76_110)">
<path d="M15.521 4.09961C12.7687 4.09961 8.96512 4.28155 6.77024 5.18512C4.57536 6.08869 2.68438 7.83809 1.84171 9.20982C0.587499 10.9822 0.0973701 13.6022 0.0973701 16.1739C0.0973701 19.3127 0.515017 21.4151 1.76151 23.3024C2.34344 24.2222 2.84419 24.9489 3.56335 25.6857C4.36749 26.5097 5.44466 27.1954 6.45619 27.5807C10.3252 28.898 12.5693 29.0244 13.5508 29.1015C14.7861 29.2038 17.4374 29.2533 18.4493 29.2194C18.4493 29.2194 18.3685 21.5667 18.3693 21.6392C17.0278 21.6379 15.9988 21.6533 14.9761 21.627C12.9762 21.5742 8.64316 21.5641 8.75609 16.5793C8.84974 12.4458 12.4628 12.0567 14.9378 12.01C16.083 11.9868 17.1453 12.0073 18.4674 12.0209L18.4564 4.14438C17.4584 4.12324 16.5255 4.09961 15.521 4.09961ZM0.888424 31.4674C0.296151 31.4674 0 31.7279 0 32.2492V32.4576C0.418077 35.5505 1.55048 38.0702 3.39697 40.0164C5.24345 41.9625 7.42055 43.3698 9.92898 44.2386C12.4723 45.0727 15.1027 45.49 17.8202 45.49C18.0361 45.49 18.2447 45.4818 18.4565 45.4764V38.3303C18.2482 38.3412 18.037 38.3478 17.8202 38.3478C13.1169 38.3478 10.1208 36.3147 8.83171 32.2487C8.69235 31.7274 8.34396 31.4669 7.78653 31.4669L0.888424 31.4674Z" fill="#ECE9DA"/>
</g>
</g>
<defs>
<filter id="filter0_d_76_110" x="50.7456" y="5.03076" width="97.8262" height="32.0698" filterUnits="userSpaceOnUse" color-interpolation-filters="sRGB">
<feFlood flood-opacity="0" result="BackgroundImageFix"/>
<feColorMatrix in="SourceAlpha" type="matrix" values="0 0 0 0 0 0 0 0 0 0 0 0 0 0 0 0 0 0 127 0" result="hardAlpha"/>
<feOffset dy="4"/>
<feGaussianBlur stdDeviation="2"/>
<feComposite in2="hardAlpha" operator="out"/>
<feColorMatrix type="matrix" values="0 0 0 0 0 0 0 0 0 0 0 0 0 0 0 0 0 0 0.25 0"/>
<feBlend mode="normal" in2="BackgroundImageFix" result="effect1_dropShadow_76_110"/>
<feBlend mode="normal" in="SourceGraphic" in2="effect1_dropShadow_76_110" result="shape"/>
</filter>
<filter id="filter1_d_76_110" x="148.554" y="5.40039" width="82.4456" height="31.7002" filterUnits="userSpaceOnUse" color-interpolation-filters="sRGB">
<feFlood flood-opacity="0" result="BackgroundImageFix"/>
<feColorMatrix in="SourceAlpha" type="matrix" values="0 0 0 0 0 0 0 0 0 0 0 0 0 0 0 0 0 0 127 0" result="hardAlpha"/>
<feOffset dy="4"/>
<feGaussianBlur stdDeviation="2"/>
<feComposite in2="hardAlpha" operator="out"/>
<feColorMatrix type="matrix" values="0 0 0 0 0 0 0 0 0 0 0 0 0 0 0 0 0 0 0.25 0"/>
<feBlend mode="normal" in2="BackgroundImageFix" result="effect1_dropShadow_76_110"/>
<feBlend mode="normal" in="SourceGraphic" in2="effect1_dropShadow_76_110" result="shape"/>
</filter>
<filter id="filter2_d_76_110" x="50.6956" y="25.9014" width="127.55" height="27.1509" filterUnits="userSpaceOnUse" color-interpolation-filters="sRGB">
<feFlood flood-opacity="0" result="BackgroundImageFix"/>
<feColorMatrix in="SourceAlpha" type="matrix" values="0 0 0 0 0 0 0 0 0 0 0 0 0 0 0 0 0 0 127 0" result="hardAlpha"/>
<feOffset dy="4"/>
<feGaussianBlur stdDeviation="2"/>
<feComposite in2="hardAlpha" operator="out"/>
<feColorMatrix type="matrix" values="0 0 0 0 0 0 0 0 0 0 0 0 0 0 0 0 0 0 0.25 0"/>
<feBlend mode="normal" in2="BackgroundImageFix" result="effect1_dropShadow_76_110"/>
<feBlend mode="normal" in="SourceGraphic" in2="effect1_dropShadow_76_110" result="shape"/>
</filter>
<filter id="filter3_d_76_110" x="16.8521" y="0" width="9.96484" height="57" filterUnits="userSpaceOnUse" color-interpolation-filters="sRGB">
<feFlood flood-opacity="0" result="BackgroundImageFix"/>
<feColorMatrix in="SourceAlpha" type="matrix" values="0 0 0 0 0 0 0 0 0 0 0 0 0 0 0 0 0 0 127 0" result="hardAlpha"/>
<feOffset dy="4"/>
<feGaussianBlur stdDeviation="2"/>
<feComposite in2="hardAlpha" operator="out"/>
<feColorMatrix type="matrix" values="0 0 0 0 0 0 0 0 0 0 0 0 0 0 0 0 0 0 0.25 0"/>
<feBlend mode="normal" in2="BackgroundImageFix" result="effect1_dropShadow_76_110"/>
<feBlend mode="normal" in="SourceGraphic" in2="effect1_dropShadow_76_110" result="shape"/>
</filter>
<filter id="filter4_d_76_110" x="21.2017" y="4.09961" width="27.0886" height="49.3394" filterUnits="userSpaceOnUse" color-interpolation-filters="sRGB">
<feFlood flood-opacity="0" result="BackgroundImageFix"/>
<feColorMatrix in="SourceAlpha" type="matrix" values="0 0 0 0 0 0 0 0 0 0 0 0 0 0 0 0 0 0 127 0" result="hardAlpha"/>
<feOffset dy="4"/>
<feGaussianBlur stdDeviation="2"/>
<feComposite in2="hardAlpha" operator="out"/>
<feColorMatrix type="matrix" values="0 0 0 0 0 0 0 0 0 0 0 0 0 0 0 0 0 0 0.25 0"/>
<feBlend mode="normal" in2="BackgroundImageFix" result="effect1_dropShadow_76_110"/>
<feBlend mode="normal" in="SourceGraphic" in2="effect1_dropShadow_76_110" result="shape"/>
</filter>
<filter id="filter5_d_76_110" x="21.2014" y="4.09961" width="27.0886" height="49.3394" filterUnits="userSpaceOnUse" color-interpolation-filters="sRGB">
<feFlood flood-opacity="0" result="BackgroundImageFix"/>
<feColorMatrix in="SourceAlpha" type="matrix" values="0 0 0 0 0 0 0 0 0 0 0 0 0 0 0 0 0 0 127 0" result="hardAlpha"/>
<feOffset dy="4"/>
<feGaussianBlur stdDeviation="2"/>
<feComposite in2="hardAlpha" operator="out"/>
<feColorMatrix type="matrix" values="0 0 0 0 0 0 0 0 0 0 0 0 0 0 0 0 0 0 0.25 0"/>
<feBlend mode="normal" in2="BackgroundImageFix" result="effect1_dropShadow_76_110"/>
<feBlend mode="normal" in="SourceGraphic" in2="effect1_dropShadow_76_110" result="shape"/>
</filter>
<filter id="filter6_d_76_110" x="-4" y="4.09961" width="26.4673" height="49.3906" filterUnits="userSpaceOnUse" color-interpolation-filters="sRGB">
<feFlood flood-opacity="0" result="BackgroundImageFix"/>
<feColorMatrix in="SourceAlpha" type="matrix" values="0 0 0 0 0 0 0 0 0 0 0 0 0 0 0 0 0 0 127 0" result="hardAlpha"/>
<feOffset dy="4"/>
<feGaussianBlur stdDeviation="2"/>
<feComposite in2="hardAlpha" operator="out"/>
<feColorMatrix type="matrix" values="0 0 0 0 0 0 0 0 0 0 0 0 0 0 0 0 0 0 0.25 0"/>
<feBlend mode="normal" in2="BackgroundImageFix" result="effect1_dropShadow_76_110"/>
<feBlend mode="normal" in="SourceGraphic" in2="effect1_dropShadow_76_110" result="shape"/>
</filter>
<clipPath id="clip0_76_110">
<rect width="227" height="49" fill="white"/>
</clipPath>
</defs>
</svg>
