<?xml version="1.0" encoding="UTF-8" standalone="no"?>
<!-- Created with Inkscape (http://www.inkscape.org/) -->

<svg
   width="6.5347862in"
   height="1.4141153in"
   viewBox="0 0 165.98357 35.918529"
   version="1.1"
   id="svg1"
   xmlns="http://www.w3.org/2000/svg"
   xmlns:svg="http://www.w3.org/2000/svg">
  <defs
     id="defs1" />
  <g
     id="layer1"
     transform="translate(100.58413,-150.2457)">
    <g
       id="text19"
       style="font-weight:800;font-size:9.84347px;font-family:'Open Sauce Two';-inkscape-font-specification:'Open Sauce Two, Ultra-Bold';text-align:center;letter-spacing:-0.110739px;text-anchor:middle;stroke-width:0.205071"
       aria-label="Sunday Ready"
       transform="matrix(1.8346197,0,0,1.8346197,121.9121,-76.691984)">
      <path
         style="fill:#333333"
         d="m -96.100452,133.52317 q -0.76779,0 -1.486364,-0.23624 -0.708729,-0.24609 -1.230433,-0.79732 -0.521704,-0.55124 -0.639826,-1.42731 v -0.0394 q 0,-0.14765 0.167339,-0.14765 h 1.299338 q 0.157496,0 0.19687,0.14765 0.364208,1.15169 1.693076,1.15169 0.551235,0 0.9056,-0.23625 0.364208,-0.23624 0.364208,-0.69888 0,-0.32484 -0.2264,-0.52171 -0.2264,-0.19687 -0.570921,-0.30514 -0.334678,-0.10828 -0.93513,-0.23625 -0.846538,-0.18702 -1.387929,-0.38389 -0.541391,-0.20672 -0.925286,-0.63983 -0.383895,-0.44295 -0.383895,-1.19106 0,-0.72841 0.354365,-1.23043 0.354364,-0.51186 0.974503,-0.76779 0.620139,-0.25593 1.397773,-0.25593 0.73826,0 1.378085,0.25593 0.649669,0.24608 1.092626,0.75794 0.452799,0.50202 0.600451,1.23044 l 0.0098,0.0492 q 0,0.0689 -0.04922,0.10827 -0.03937,0.0295 -0.118121,0.0295 h -1.279651 q -0.157496,0 -0.19687,-0.1378 -0.167339,-0.46265 -0.561077,-0.69889 -0.383896,-0.24609 -0.915443,-0.24609 -0.48233,0 -0.797321,0.19687 -0.305148,0.19687 -0.305148,0.57092 0,0.29531 0.206713,0.47249 0.216556,0.17718 0.531547,0.28546 0.324835,0.0984 0.915443,0.23624 0.866225,0.18703 1.427303,0.40359 0.561078,0.20671 0.96466,0.6792 0.403583,0.46264 0.403583,1.25996 0,0.71857 -0.344522,1.25012 -0.344521,0.53155 -0.99419,0.82685 -0.639826,0.28546 -1.535582,0.28546 z m 5.637852,-0.0394 q -1.309181,0 -1.761981,-0.94497 -0.127965,-0.27562 -0.177183,-0.60046 -0.03937,-0.32483 -0.03937,-0.9745 v -2.97273 q 0,-0.17718 0.177182,-0.17718 h 1.131999 q 0.177182,0 0.177182,0.17718 v 2.99242 q 0,0.41342 0.05906,0.66935 0.05906,0.24609 0.19687,0.39374 0.206713,0.2264 0.649669,0.2264 0.531547,0 0.787477,-0.31499 0.147652,-0.16734 0.206713,-0.44296 0.05906,-0.27561 0.05906,-0.72841 v -2.79555 q 0,-0.17718 0.177182,-0.17718 h 1.141843 q 0.177182,0 0.177182,0.17718 v 5.19735 q 0,0.17719 -0.177182,0.17719 h -1.141843 q -0.177182,0 -0.177182,-0.17719 v -0.14765 q 0,-0.15749 -0.07875,-0.15749 -0.04922,0 -0.108278,0.0787 -0.25593,0.26578 -0.561078,0.39374 -0.305147,0.12797 -0.718573,0.12797 z m 4.171168,-0.11812 q -0.177183,0 -0.177183,-0.17719 v -5.19735 q 0,-0.17718 0.177183,-0.17718 h 1.141842 q 0.177183,0 0.177183,0.17718 v 0.1575 q 0,0.13781 0.07875,0.13781 0.03937,0 0.118122,-0.0788 0.265774,-0.27562 0.570921,-0.39374 0.305148,-0.11812 0.689043,-0.11812 1.348555,0 1.761981,0.94497 0.157496,0.32484 0.187026,0.65951 0.03937,0.33468 0.03937,0.91545 v 2.97272 q 0,0.17719 -0.177183,0.17719 h -1.131999 q -0.177182,0 -0.177182,-0.17719 V 130.196 q 0,-0.41343 -0.05906,-0.65951 -0.05906,-0.25593 -0.196869,-0.40359 -0.216557,-0.22639 -0.649669,-0.22639 -0.551234,0 -0.797321,0.31499 -0.137809,0.16734 -0.19687,0.44295 -0.05906,0.27562 -0.05906,0.72842 v 2.79554 q 0,0.17719 -0.177183,0.17719 z m 7.980596,0.11812 q -0.708729,0 -1.259964,-0.36421 -0.551234,-0.37405 -0.866225,-1.02372 -0.305148,-0.65951 -0.305148,-1.50605 0,-0.84654 0.305148,-1.49621 0.314991,-0.65951 0.866225,-1.02372 0.551235,-0.37405 1.259964,-0.37405 0.413426,0 0.718574,0.11812 0.314991,0.11812 0.580764,0.39374 0.07875,0.0788 0.118122,0.0788 0.07875,0 0.07875,-0.13781 v -2.11635 q 0,-0.17718 0.177182,-0.17718 h 1.141843 q 0.177182,0 0.177182,0.17718 v 7.1562 q 0,0.17719 -0.177182,0.17719 h -1.141843 q -0.177182,0 -0.177182,-0.17719 v -0.19686 q 0,-0.10828 -0.06891,-0.10828 -0.04922,0 -0.127965,0.0787 -0.265773,0.28547 -0.580764,0.40359 -0.305148,0.11812 -0.718574,0.11812 z m 0.383896,-1.27965 q 0.590608,0 0.954816,-0.44296 0.374052,-0.4528 0.374052,-1.17137 0,-0.71857 -0.374052,-1.16153 -0.364208,-0.4528 -0.954816,-0.4528 -0.590608,0 -0.954817,0.4528 -0.354365,0.44296 -0.354365,1.16153 0,0.71857 0.354365,1.17137 0.364209,0.44296 0.954817,0.44296 z m 5.244106,1.27965 q -0.797321,0 -1.309181,-0.43311 -0.511861,-0.44296 -0.511861,-1.23044 0,-0.84654 0.669356,-1.29934 0.433113,-0.2953 1.299338,-0.4528 l 1.378086,-0.25593 q 0.167339,-0.0295 0.157495,-0.20671 -0.05906,-0.33468 -0.236243,-0.53155 -0.216556,-0.23624 -0.649669,-0.23624 -0.295304,0 -0.541391,0.17718 -0.246086,0.16734 -0.354365,0.46265 -0.03937,0.14765 -0.196869,0.14765 h -1.122155 q -0.206713,0 -0.157496,-0.19687 0.187026,-0.85638 0.856382,-1.2895 0.669356,-0.44295 1.525738,-0.44295 0.502017,0 0.944973,0.13781 0.442956,0.13781 0.757947,0.41342 0.314991,0.27562 0.452799,0.63983 0.147653,0.36421 0.177183,0.7481 0.03937,0.37405 0.03937,0.97451 v 2.57898 q 0,0.17719 -0.177183,0.17719 h -1.141842 q -0.177183,0 -0.177183,-0.17719 v -0.18702 q 0,-0.1575 -0.05906,-0.1575 -0.02953,0 -0.08859,0.0689 -0.167339,0.18702 -0.295304,0.26577 -0.452799,0.30515 -1.240277,0.30515 z m 0.403582,-1.15169 q 0.344522,0 0.649669,-0.14765 0.334678,-0.15749 0.48233,-0.42327 0.147652,-0.26577 0.177183,-0.69889 v -0.0197 q 0,-0.0886 -0.05906,-0.12797 -0.04922,-0.0394 -0.137809,-0.0197 l -0.96466,0.18702 q -0.28546,0.0591 -0.452799,0.12797 -0.157496,0.0689 -0.265774,0.16734 -0.167339,0.16734 -0.167339,0.39373 0,0.27562 0.206713,0.42327 0.206713,0.13781 0.531547,0.13781 z m 4.033369,2.99242 q -0.07875,0 -0.127965,-0.0492 -0.04922,-0.0492 -0.04922,-0.12797 v -0.87606 q 0,-0.17719 0.177183,-0.17719 h 0.462643 q 0.236243,0 0.374052,-0.0591 0.147652,-0.0591 0.246087,-0.24608 l 0.09843,-0.23625 q 0.03937,-0.0689 0.03937,-0.14765 0,-0.0295 -0.01969,-0.10828 l -1.889946,-5.2761 -0.01969,-0.0787 q 0,-0.12797 0.157496,-0.12797 h 1.230433 q 0.167339,0 0.206713,0.14765 l 1.004034,3.43537 q 0.02953,0.12797 0.108278,0.12797 0.07875,0 0.108278,-0.12797 l 0.895756,-3.42552 q 0.04922,-0.1575 0.19687,-0.1575 h 1.240277 q 0.08859,0 0.127965,0.0591 0.03937,0.0492 0.0098,0.14765 l -1.998224,5.84702 q -0.265774,0.79732 -0.669356,1.12216 -0.393739,0.33468 -1.122155,0.33468 z"
         id="path11" />
      <path
         style="fill:#fbde59"
         d="m -60.297288,133.36568 q -0.177183,0 -0.177183,-0.17719 v -7.1562 q 0,-0.17718 0.177183,-0.17718 h 3.218814 q 1.102469,0 1.732451,0.55123 0.639826,0.54139 0.639826,1.69308 0,0.65951 -0.265774,1.16153 -0.25593,0.49217 -0.718573,0.77763 -0.09843,0.0591 -0.09843,0.14766 0,0.0295 0.01969,0.0886 l 1.181216,2.88413 0.01969,0.0787 q 0,0.12797 -0.157495,0.12797 h -1.319025 q -0.147652,0 -0.206713,-0.13781 l -1.033564,-2.66758 q -0.04922,-0.14765 -0.19687,-0.14765 h -1.230434 q -0.07875,0 -0.127965,0.0492 -0.04922,0.0492 -0.04922,0.12797 v 2.59867 q 0,0.17719 -0.177182,0.17719 z m 2.992415,-4.33113 q 0.502017,0 0.757947,-0.2264 0.265773,-0.2264 0.265773,-0.65951 0,-0.42327 -0.265773,-0.63983 -0.25593,-0.2264 -0.757947,-0.2264 h -1.407617 q -0.177182,0 -0.177182,0.17719 v 1.39777 q 0,0.17718 0.177182,0.17718 z m 6.031584,4.44925 q -0.846539,0 -1.506051,-0.36421 -0.649669,-0.37405 -1.004034,-1.02372 -0.354365,-0.64967 -0.354365,-1.46668 0,-0.7481 0.305148,-1.41746 0.314991,-0.6792 0.944973,-1.09262 0.639825,-0.42327 1.565111,-0.42327 0.757948,0 1.397773,0.31499 0.649669,0.30515 1.043408,0.96466 0.393739,0.64967 0.393739,1.63402 v 0.11812 q 0,0.17718 -0.177183,0.17718 h -3.730675 q -0.08859,0 -0.127965,0.0492 -0.03937,0.0492 -0.01969,0.13781 0.05906,0.27561 0.206713,0.49217 0.374052,0.61029 1.131999,0.61029 0.364208,0 0.629982,-0.15749 0.275617,-0.16734 0.423269,-0.44296 0.04922,-0.0591 0.08859,-0.0886 0.04922,-0.0295 0.118121,-0.0295 h 1.151686 q 0.09844,0 0.137809,0.0394 0.04922,0.0394 0.02953,0.10828 -0.28546,0.8367 -0.954816,1.34856 -0.659513,0.51186 -1.693077,0.51186 z m 1.063095,-3.67162 q 0.08859,0 0.137808,-0.0492 0.04922,-0.0591 0.0098,-0.14766 -0.06891,-0.16733 -0.177183,-0.30514 -0.354365,-0.4528 -1.023721,-0.4528 -0.669356,0 -1.033564,0.4528 -0.127965,0.13781 -0.177182,0.31499 -0.01969,0.0394 -0.01969,0.0689 0,0.0492 0.04922,0.0886 0.04922,0.0295 0.118122,0.0295 z m 4.131787,3.67162 q -0.797321,0 -1.309181,-0.43311 -0.51186,-0.44296 -0.51186,-1.23044 0,-0.84654 0.669356,-1.29934 0.433112,-0.2953 1.299338,-0.4528 l 1.378085,-0.25593 q 0.167339,-0.0295 0.157496,-0.20671 -0.05906,-0.33468 -0.236243,-0.53155 -0.216557,-0.23624 -0.649669,-0.23624 -0.295305,0 -0.541391,0.17718 -0.246087,0.16734 -0.354365,0.46265 -0.03937,0.14765 -0.19687,0.14765 h -1.122155 q -0.206713,0 -0.157496,-0.19687 0.187026,-0.85638 0.856382,-1.2895 0.669356,-0.44295 1.525738,-0.44295 0.502017,0 0.944973,0.13781 0.442956,0.13781 0.757947,0.41342 0.314991,0.27562 0.4528,0.63983 0.147652,0.36421 0.177182,0.7481 0.03937,0.37405 0.03937,0.97451 v 2.57898 q 0,0.17719 -0.177182,0.17719 h -1.141843 q -0.177182,0 -0.177182,-0.17719 v -0.18702 q 0,-0.1575 -0.05906,-0.1575 -0.02953,0 -0.08859,0.0689 -0.167339,0.18702 -0.295304,0.26577 -0.4528,0.30515 -1.240278,0.30515 z m 0.403583,-1.15169 q 0.344521,0 0.649669,-0.14765 0.334678,-0.15749 0.48233,-0.42327 0.147652,-0.26577 0.177182,-0.69889 v -0.0197 q 0,-0.0886 -0.05906,-0.12797 -0.04922,-0.0394 -0.137808,-0.0197 l -0.96466,0.18702 q -0.285461,0.0591 -0.4528,0.12797 -0.157495,0.0689 -0.265774,0.16734 -0.167338,0.16734 -0.167338,0.39373 0,0.27562 0.206712,0.42327 0.206713,0.13781 0.531548,0.13781 z m 5.972534,1.15169 q -0.70873,0 -1.259964,-0.36421 -0.551235,-0.37405 -0.866226,-1.02372 -0.305147,-0.65951 -0.305147,-1.50605 0,-0.84654 0.305147,-1.49621 0.314991,-0.65951 0.866226,-1.02372 0.551234,-0.37405 1.259964,-0.37405 0.413425,0 0.718573,0.11812 0.314991,0.11812 0.580765,0.39374 0.07875,0.0788 0.118121,0.0788 0.07875,0 0.07875,-0.13781 v -2.11635 q 0,-0.17718 0.177183,-0.17718 h 1.141842 q 0.177182,0 0.177182,0.17718 v 7.1562 q 0,0.17719 -0.177182,0.17719 H -38.0289 q -0.177183,0 -0.177183,-0.17719 v -0.19686 q 0,-0.10828 -0.0689,-0.10828 -0.04922,0 -0.127965,0.0787 -0.265774,0.28547 -0.580765,0.40359 -0.305148,0.11812 -0.718573,0.11812 z m 0.383895,-1.27965 q 0.590608,0 0.954817,-0.44296 0.374051,-0.4528 0.374051,-1.17137 0,-0.71857 -0.374051,-1.16153 -0.364209,-0.4528 -0.954817,-0.4528 -0.590608,0 -0.954817,0.4528 -0.354364,0.44296 -0.354364,1.16153 0,0.71857 0.354364,1.17137 0.364209,0.44296 0.954817,0.44296 z m 3.92508,3.12038 q -0.07875,0 -0.127965,-0.0492 -0.04922,-0.0492 -0.04922,-0.12797 v -0.87606 q 0,-0.17719 0.177183,-0.17719 h 0.462643 q 0.236243,0 0.374052,-0.0591 0.147652,-0.0591 0.246086,-0.24608 l 0.09843,-0.23625 q 0.03937,-0.0689 0.03937,-0.14765 0,-0.0295 -0.01969,-0.10828 l -1.889946,-5.2761 -0.01969,-0.0787 q 0,-0.12797 0.157495,-0.12797 h 1.230434 q 0.167339,0 0.206713,0.14765 l 1.004034,3.43537 q 0.02953,0.12797 0.108278,0.12797 0.07875,0 0.108278,-0.12797 l 0.895756,-3.42552 q 0.04922,-0.1575 0.196869,-0.1575 h 1.240277 q 0.08859,0 0.127966,0.0591 0.03937,0.0492 0.0098,0.14765 l -1.998224,5.84702 q -0.265774,0.79732 -0.669356,1.12216 -0.393739,0.33468 -1.122156,0.33468 z"
         id="path12" />
    </g>
    <path
       d="m -54.5614,183.27048 q -1.379085,0 -2.66977,-0.42433 -1.273006,-0.44201 -2.210076,-1.43212 -0.937073,-0.99013 -1.149239,-2.5637 v -0.0706 q 0,-0.26523 0.300569,-0.26523 h 2.333842 q 0.282895,0 0.353612,0.26523 0.654181,2.06862 3.041062,2.06862 0.990115,0 1.626614,-0.42432 0.654185,-0.42435 0.654185,-1.25532 0,-0.58347 -0.406656,-0.93709 -0.406653,-0.35361 -1.025473,-0.54809 -0.601139,-0.19447 -1.679657,-0.42433 -1.520533,-0.33594 -2.492964,-0.68955 -0.972435,-0.37129 -1.661978,-1.14924 -0.689546,-0.79564 -0.689546,-2.13935 0,-1.30838 0.636505,-2.21007 0.636501,-0.9194 1.750379,-1.3791 1.113877,-0.45969 2.510644,-0.45969 1.326047,0 2.475284,0.45969 1.166921,0.44201 1.962548,1.36141 0.813309,0.90172 1.078518,2.21008 l 0.01761,0.0884 q 0,0.12384 -0.08839,0.19449 -0.07071,0.053 -0.212177,0.053 h -2.298478 q -0.282896,0 -0.353616,-0.24752 -0.300569,-0.83099 -1.007793,-1.25532 -0.689544,-0.44202 -1.644296,-0.44202 -0.86635,0 -1.432128,0.35362 -0.548098,0.35361 -0.548098,1.02547 0,0.53042 0.371292,0.84867 0.388972,0.31825 0.954752,0.51274 0.583461,0.17686 1.644295,0.42433 1.555893,0.33594 2.563688,0.72491 1.007794,0.37129 1.7327,1.21995 0.724904,0.83099 0.724904,2.26313 0,1.29068 -0.618819,2.24543 -0.618821,0.95476 -1.785742,1.48518 -1.149241,0.51272 -2.758177,0.51272 z m 12.08943,-0.0706 q -1.520532,0 -2.705133,-0.65419 -1.166918,-0.65417 -1.821103,-1.83878 -0.654181,-1.20229 -0.654181,-2.75817 0,-1.50285 0.654181,-2.66978 0.654185,-1.16693 1.821103,-1.8211 1.184601,-0.65418 2.705133,-0.65418 1.520533,0 2.687451,0.65418 1.184601,0.65417 1.821102,1.8211 0.654185,1.16693 0.654185,2.66978 0,1.55588 -0.654185,2.75817 -0.636501,1.18461 -1.803422,1.83878 -1.166917,0.65419 -2.705131,0.65419 z m 0,-2.31617 q 1.078517,0 1.7327,-0.79562 0.654181,-0.81331 0.654181,-2.13935 0,-1.25532 -0.654181,-2.05096 -0.654183,-0.79562 -1.7327,-0.79562 -1.078517,0 -1.750379,0.79562 -0.671865,0.77795 -0.671865,2.05096 0,1.32604 0.671865,2.13935 0.671862,0.79562 1.750379,0.79562 z m 9.578776,2.10399 q -1.113877,0 -1.715019,-0.51273 -0.601139,-0.53041 -0.601139,-1.57358 v -11.08574 q 0,-0.31825 0.31825,-0.31825 h 2.050948 q 0.318252,0 0.318252,0.31825 v 10.2194 q 0,0.76025 0.689545,0.76025 h 0.371293 q 0.318249,0 0.318249,0.31825 v 1.5559 q 0,0.31825 -0.318249,0.31825 z m 7.191896,0.21218 q -2.351518,0 -3.164829,-1.69734 -0.22985,-0.49505 -0.31825,-1.07851 -0.07072,-0.58345 -0.07072,-1.75038 v -5.33955 q 0,-0.31823 0.318251,-0.31823 h 2.033269 q 0.31825,0 0.31825,0.31823 v 5.3749 q 0,0.7426 0.106096,1.2023 0.106096,0.442 0.353613,0.70721 0.371293,0.40667 1.16692,0.40667 0.954752,0 1.414447,-0.56578 0.265195,-0.30057 0.371293,-0.79564 0.106096,-0.49505 0.106096,-1.30836 v -5.0213 q 0,-0.31823 0.318249,-0.31823 h 2.050953 q 0.318249,0 0.318249,0.31823 v 9.33537 q 0,0.31825 -0.318249,0.31825 h -2.050953 q -0.318249,0 -0.318249,-0.31825 v -0.26523 q 0,-0.2829 -0.141431,-0.2829 -0.08839,0 -0.194477,0.14145 -0.459695,0.47737 -1.007794,0.70721 -0.5481,0.22986 -1.290684,0.22986 z m 10.957857,-0.21218 q -1.113876,0 -1.715019,-0.51273 -0.601139,-0.53041 -0.601139,-1.57358 v -5.44562 q 0,-0.31826 -0.318249,-0.31826 h -0.777949 q -0.141431,0 -0.22985,-0.0884 -0.08839,-0.0884 -0.08839,-0.22986 v -1.48517 q 0,-0.31825 0.31825,-0.31825 h 0.777948 q 0.31825,0 0.31825,-0.31825 v -2.88193 q 0,-0.31825 0.318251,-0.31825 h 2.050949 q 0.31825,0 0.31825,0.31825 v 2.88195 q 0,0.31825 0.318253,0.31825 h 1.184599 q 0.31825,0 0.31825,0.31825 v 1.48516 q 0,0.31826 -0.31825,0.31826 h -1.18461 q -0.318253,0 -0.318253,0.31825 v 4.57928 q 0,0.35361 0.141431,0.56578 0.14143,0.19447 0.565778,0.19447 h 0.777945 q 0.318251,0 0.318251,0.31825 v 1.55589 q 0,0.31825 -0.318251,0.31825 z m 4.628219,0 q -0.318249,0 -0.318249,-0.31825 v -9.33535 q 0,-0.31825 0.318249,-0.31825 h 2.0509509 q 0.31825,0 0.31825,0.31825 v 9.33535 q 0,0.31825 -0.31825,0.31825 z m 1.0254779,-10.85588 q -0.671866,0 -1.1315609,-0.38898 -0.442013,-0.40666 -0.442013,-1.06083 0,-0.6365 0.459695,-1.04316 0.4596929,-0.40665 1.1138789,-0.40665 0.654181,0 1.113876,0.40665 0.459695,0.40666 0.459695,1.04316 0,0.65417 -0.459695,1.06083 -0.442015,0.38898 -1.113876,0.38898 z m 8.65937335,11.06806 q -1.52053275,0 -2.70513205,-0.65419 -1.1669209,-0.65417 -1.8211022,-1.83878 -0.6541832,-1.20229 -0.6541832,-2.75817 0,-1.50285 0.6541832,-2.66978 0.6541813,-1.16693 1.8211022,-1.8211 1.1845993,-0.65418 2.70513205,-0.65418 1.52053105,0 2.68745195,0.65418 1.1845993,0.65417 1.8211022,1.8211 0.6541814,1.16693 0.6541814,2.66978 0,1.55588 -0.6541814,2.75817 -0.6365029,1.18461 -1.8034201,1.83878 -1.1669209,0.65419 -2.70513405,0.65419 z m 0,-2.31617 q 1.0785179,0 1.73269935,-0.79562 0.6541832,-0.81331 0.6541832,-2.13935 0,-1.25532 -0.6541832,-2.05096 -0.65418145,-0.79562 -1.73269935,-0.79562 -1.07851595,0 -1.75038125,0.79562 -0.6718616,0.77795 -0.6718616,2.05096 0,1.32604 0.6718616,2.13935 0.6718653,0.79562 1.75038125,0.79562 z m 7.63391335,2.10399 q -0.3182533,0 -0.3182533,-0.31825 v -9.33535 q 0,-0.31825 0.3182533,-0.31825 h 2.0509507 q 0.3182497,0 0.3182497,0.31825 v 0.2829 q 0,0.24751 0.1414308,0.24751 0.070725,0 0.2121793,-0.14145 0.4773749,-0.49506 1.0254749,-0.70721 0.548099,-0.21219 1.237642,-0.21219 2.422243,0 3.164828,1.69733 0.282896,0.58347 0.335931,1.18462 0.07071,0.60113 0.07071,1.64429 v 5.33953 q 0,0.31826 -0.31825,0.31826 H 13.40942 q -0.318251,0 -0.318251,-0.31826 v -5.3749 q 0,-0.74258 -0.106096,-1.18459 -0.106096,-0.45971 -0.353612,-0.72492 -0.388975,-0.40664 -1.166921,-0.40664 -0.990115,0 -1.432128,0.56578 -0.2475234,0.30056 -0.3536122,0.79562 -0.106096,0.49505 -0.106096,1.30837 v 5.02128 q 0,0.31826 -0.3182497,0.31826 z m 15.4310584,0.21218 q -1.75038,0 -3.111789,-0.79562 -1.343723,-0.81331 -1.697337,-2.47529 v -0.0706 q 0,-0.26523 0.30057,-0.26523 h 1.99791 q 0.247523,0 0.353612,0.24752 0.282894,0.63651 0.830987,0.97243 0.565782,0.31825 1.290684,0.31825 0.689544,0 1.131561,-0.26521 0.459695,-0.2829 0.459695,-0.76027 0,-0.53043 -0.530418,-0.76027 -0.53042,-0.22986 -1.679657,-0.47738 -1.16692,-0.22984 -1.944867,-0.49506 -0.760267,-0.26521 -1.308365,-0.88403 -0.548098,-0.61881 -0.548098,-1.67965 0,-1.50286 1.113877,-2.24544 1.13156,-0.76027 2.811217,-0.76027 1.715019,0 2.881936,0.81331 1.166921,0.81332 1.538213,2.29848 v 0.0708 q 0,0.26521 -0.300569,0.26521 h -1.891825 q -0.265222,0 -0.371292,-0.24753 -0.247522,-0.58344 -0.742587,-0.86634 -0.477375,-0.2829 -1.113876,-0.2829 -0.636503,0 -1.007795,0.24753 -0.371292,0.22986 -0.371292,0.6365 0,0.49505 0.530416,0.72491 0.530421,0.22984 1.661978,0.42433 1.202281,0.21218 1.980226,0.47737 0.795629,0.26523 1.361407,0.88403 0.565779,0.60115 0.565779,1.67967 0,0.97242 -0.512736,1.71502 -0.495056,0.74258 -1.44981,1.14922 -0.937071,0.40667 -2.227755,0.40667 z"
       id="text20"
       style="font-weight:800;font-size:6.00301px;font-family:'Open Sauce Two';-inkscape-font-specification:'Open Sauce Two, Ultra-Bold';text-align:center;letter-spacing:0.166688px;word-spacing:0px;text-anchor:middle;white-space:pre;inline-size:70.4408;fill:#333333;stroke-width:0.368348"
       aria-label="Solutions" />
    <g
       id="g43"
       transform="matrix(1.4357851,0,0,1.4357851,-23.759655,-19.458736)">
      <rect
         style="fill:#333333;fill-opacity:1;stroke:#333333;stroke-width:0.264583"
         id="rect41"
         width="2.020571"
         height="50.514278"
         x="-66.228897"
         y="18.961634" />
      <path
         id="path42"
         style="font-weight:800;font-size:57.5301px;font-family:'Open Sauce Two';-inkscape-font-specification:'Open Sauce Two, Ultra-Bold';text-align:center;letter-spacing:-0.647214px;text-anchor:middle;fill:#fbde59;fill-opacity:1;stroke-width:1.16363"
         d="m -61.756136,23.188128 v 8.098644 h 4.102002 c 1.899051,0 3.332537,0.428452 4.300681,1.284887 1.005379,0.819198 1.508148,2.029231 1.508148,3.630391 0,1.638397 -0.502769,2.885841 -1.508148,3.742276 -0.968144,0.856434 -2.40163,1.284885 -4.300681,1.284885 h -4.102002 v 7.819191 h 3.096571 c 0.558543,0 0.931131,0.279317 1.117314,0.83786 l 5.864518,15.13667 c 0.223417,0.521307 0.614459,0.78217 1.173004,0.78217 h 7.484549 c 0.595781,0 0.89355,-0.242409 0.89355,-0.72648 l -0.11138,-0.446524 -6.702881,-16.365364 c -0.07448,-0.223417 -0.11138,-0.391008 -0.11138,-0.502716 0,-0.335126 0.186043,-0.614442 0.558406,-0.83786 1.750106,-1.079853 3.109275,-2.550748 4.077419,-4.412562 1.00538,-1.899051 1.508147,-4.096167 1.508147,-6.590999 0,-4.356645 -1.210535,-7.558797 -3.630894,-9.606792 -2.383122,-2.085232 -5.659591,-3.127677 -9.830054,-3.127677 z" />
      <rect
         style="fill:#333333;fill-opacity:1;stroke:#333333;stroke-width:0.131032"
         id="rect55"
         width="1.0006657"
         height="25.016644"
         x="-42.887615"
         y="118.19627" />
      <path
         id="path56"
         style="font-weight:800;font-size:57.5301px;font-family:'Open Sauce Two';-inkscape-font-specification:'Open Sauce Two, Ultra-Bold';text-align:center;letter-spacing:-0.647214px;text-anchor:middle;fill:#fbde59;fill-opacity:1;stroke-width:0.576275"
         d="m -40.672527,120.28939 v 4.01076 h 2.031471 c 0.940484,0 1.650402,0.21219 2.129865,0.63633 0.497903,0.4057 0.746894,1.00496 0.746894,1.79791 0,0.8114 -0.248991,1.42918 -0.746894,1.85332 -0.479463,0.42414 -1.189381,0.63633 -2.129865,0.63633 h -2.031471 v 3.87237 h 1.533542 c 0.276613,0 0.461133,0.13832 0.553338,0.41494 l 2.904338,7.49627 c 0.110645,0.25817 0.304304,0.38736 0.580918,0.38736 h 3.70664 c 0.295054,0 0.442521,-0.12005 0.442521,-0.35978 l -0.05516,-0.22114 -3.319528,-8.10477 c -0.03688,-0.11064 -0.05516,-0.19364 -0.05516,-0.24896 0,-0.16597 0.09214,-0.3043 0.276545,-0.41494 0.866721,-0.53479 1.539834,-1.26323 2.019297,-2.18528 0.497903,-0.94048 0.746893,-2.02858 0.746893,-3.26412 0,-2.15757 -0.599504,-3.7434 -1.79816,-4.75765 -1.180215,-1.03269 -2.802851,-1.54895 -4.868227,-1.54895 z" />
    </g>
    <rect
       style="fill:#333333;fill-opacity:1;stroke-width:0.188133"
       id="rect53"
       width="1.4367408"
       height="35.918522"
       x="-85.337051"
       y="150.2457" />
    <path
       id="path54"
       style="font-weight:800;font-size:57.5301px;font-family:'Open Sauce Two';-inkscape-font-specification:'Open Sauce Two, Ultra-Bold';text-align:center;letter-spacing:-0.647214px;text-anchor:middle;fill:#fbde59;fill-opacity:1;stroke-width:0.827406"
       d="m -82.156667,153.25097 v 5.7586 h 2.916756 c 1.350332,0 2.369625,0.30466 3.058027,0.91363 0.714883,0.5825 1.072381,1.4429 1.072381,2.58142 0,1.16499 -0.357498,2.05199 -1.072381,2.66096 -0.688402,0.60897 -1.707695,0.91363 -3.058027,0.91363 h -2.916756 v 5.55989 h 2.201837 c 0.397154,0 0.662087,0.19861 0.794471,0.59576 l 4.170008,10.76304 c 0.158864,0.37068 0.436915,0.55617 0.834076,0.55617 h 5.321941 c 0.423633,0 0.635364,-0.17237 0.635364,-0.51657 l -0.0792,-0.31751 -4.766136,-11.6367 c -0.05297,-0.15886 -0.0792,-0.27803 -0.0792,-0.35746 0,-0.23829 0.132292,-0.4369 0.397061,-0.59577 1.244428,-0.76784 2.210875,-1.81373 2.899277,-3.13758 0.714882,-1.35033 1.072381,-2.91261 1.072381,-4.68657 0,-3.09783 -0.860763,-5.37474 -2.581777,-6.83098 -1.694533,-1.48272 -4.02429,-2.22396 -6.989724,-2.22396 z" />
    <path
       id="path55"
       style="font-weight:800;font-size:55.2004px;font-family:'Open Sauce Two';-inkscape-font-specification:'Open Sauce Two, Ultra-Bold';text-align:center;letter-spacing:-0.621005px;text-anchor:middle;fill:#333333;stroke-width:0.796087"
       d="m -89.235109,153.25097 c -2.012504,0 -4.793675,0.13337 -6.398587,0.79572 -1.604906,0.66234 -2.987605,1.94471 -3.603772,2.95023 -0.917082,1.29921 -1.275462,3.21976 -1.275462,5.10489 0,2.30084 0.30538,3.84194 1.216822,5.2254 0.42551,0.67426 0.791669,1.20693 1.317517,1.74707 0.587994,0.60398 1.375625,1.10665 2.115266,1.38906 2.829018,0.96564 4.469909,1.0583 5.187614,1.11481 0.903249,0.075 2.841903,0.11127 3.581807,0.0864 0,0 -0.05909,-5.60965 -0.05852,-5.55647 -0.980882,-0.001 -1.733315,0.0103 -2.481098,-0.009 -1.462324,-0.0387 -4.630686,-0.0461 -4.548111,-3.70013 0.06848,-3.02993 2.710378,-3.3152 4.520074,-3.34942 0.837369,-0.017 1.614192,-0.002 2.580874,0.008 l -0.008,-5.77373 c -0.7298,-0.0155 -1.411938,-0.0323 -2.146424,-0.0323 z m -10.699398,20.06146 c -0.433073,0 -0.649623,0.19098 -0.649623,0.5731 v 0.15271 c 0.3057,2.26725 1.133715,4.11426 2.483877,5.54085 1.350162,1.42658 2.942069,2.45818 4.776247,3.09505 1.859655,0.61139 3.783057,0.91731 5.770091,0.91731 0.157869,0 0.310433,-0.006 0.465237,-0.01 v -5.23829 c -0.152258,0.008 -0.306686,0.0128 -0.465237,0.0128 -3.43909,0 -5.629857,-1.49029 -6.572419,-4.47084 -0.101902,-0.38212 -0.356645,-0.57309 -0.764244,-0.57309 z" />
  </g>
</svg>
